# xmcd
#
# Track frame offsets:
#	150
#	12349
#	79689
#	100472
#	113107
#	154931
#	195343
#	266986
#	315875
#
# Disc length: 4427 seconds
#
# Revision: 3
# Processed by: cddbd v1.5.2PL0 Copyright (c) Steve Scherf et al.
# Submitted via: EasyCDDAExtractor 16.0.8.1
#
DISCID=6b114909
DTITLE=Νικος Ζωιδακης - Μια Βραδια Με Την Παρεα Του live
DYEAR=1900
DGENRE=Country
TTITLE0=Προλογος
TTITLE1=Συρτα
TTITLE2=Μαλεβιζιωτης
TTITLE3=Μαυρα μου ματια
TTITLE4=Μαντιναδες
TTITLE5=Καλαματιανα
TTITLE6=Μαντιναδες Συρτα
TTITLE7=Νησιωτικα, Συλιβριανος Μπαλος and Ροδιτικη Σουστα
TTITLE8=Ντουρναρακια
EXTD=
EXTT0=
EXTT1=
EXTT2=
EXTT3=
EXTT4=
EXTT5=
EXTT6=
EXTT7=
EXTT8=
PLAYORDER=
